<?xml version="1.0" encoding="utf-8"?>
<!-- Generator: Adobe Illustrator 16.0.0, SVG Export Plug-In . SVG Version: 6.00 Build 0)  -->
<!DOCTYPE svg PUBLIC "-//W3C//DTD SVG 1.1 Basic//EN" "http://www.w3.org/Graphics/SVG/1.1/DTD/svg11-basic.dtd">
<svg version="1.1" baseProfile="basic" id="Layer_1"
	 xmlns="http://www.w3.org/2000/svg" xmlns:xlink="http://www.w3.org/1999/xlink" x="0px" y="0px" width="47px" height="47px"
	 viewBox="0 0 47 47" xml:space="preserve">
<title>150 - Piggy Bank (Outline)</title>
<g>
	<path id="a_1_" fill="none" stroke="#F15A29" stroke-linecap="round" stroke-linejoin="round" d="M13.938,22.664
		c0,1.053-0.853,1.906-1.906,1.906c-1.053,0-1.907-0.853-1.907-1.905c0-1.053,0.854-1.907,1.907-1.907
		C13.085,20.758,13.938,21.612,13.938,22.664L13.938,22.664z"/>
</g>
<g>
	<path fill="none" stroke="#F15A29" stroke-linecap="round" stroke-linejoin="round" d="M45.98,26.334
		c0,2.107-1.707,3.812-3.814,3.812 M45.98,26.334c0-2.109-1.707-3.814-3.814-3.814"/>
</g>
<path fill="none" stroke="#F15A29" stroke-linecap="round" stroke-linejoin="round" d="M43.455,24.689c0,1.199-0.973,2.17-2.17,2.17
	c-1.2,0-2.17-0.971-2.17-2.17c0-1.197,0.97-2.169,2.17-2.169C42.482,22.52,43.455,23.492,43.455,24.689z M43.957,20
	c0.771,1.467,0.822,3.2-0.03,4.775 M17.752,18.214c4.4-4.4,11.52-4.4,15.918,0"/>
<path fill="none" stroke="#F15A29" stroke-linecap="round" stroke-linejoin="round" d="M19.635,16.7
	c3.417-2.196,7.756-2.366,11.311-0.495c1.732-1.603,2.824-3.888,2.824-6.434C33.77,4.928,29.84,1,24.997,1
	c-4.843,0-8.77,3.927-8.77,8.77C16.227,12.593,17.564,15.097,19.635,16.7L19.635,16.7z"/>
<path fill="none" stroke="#F15A29" stroke-linecap="round" stroke-linejoin="round" d="M40.793,21.714
	c-1.45-3.882-4.215-6.785-7.684-8.61c-0.5,1.182-1.235,2.242-2.164,3.1c-3.555-1.87-7.894-1.7-11.309,0.497
	c-1.367-1.057-2.403-2.513-2.958-4.188c-0.018-0.045-0.042-0.085-0.057-0.132c-1.097,0.343-2.06,0.682-2.682,0.94
	c-3.198-1.298-5.43-1.86-7.385-1.642c-0.278,0.03-0.33,0.402-0.08,0.523c1.78,0.857,2.09,3.122,2.89,4.817
	c-2.322,2.237-2.55,3.862-2.96,6.79H4.78c-2.19,0-3.05,1.775-3.05,3.964v2.752c0,2.189,0.86,3.964,3.05,3.964h1.002
	c2.274,6.61,10.26,10.153,18.638,10.153c10.215,0,17.746-5.887,17.746-14.732c0-1.066-0.062-2.088-0.174-3.072"/>
<path fill="none" stroke="#F15A29" stroke-linecap="round" stroke-linejoin="round" d="M28.366,13.61
	c0.979-0.908,1.598-2.202,1.598-3.643C29.964,7.223,27.74,5,24.998,5c-2.743,0-4.966,2.223-4.966,4.967
	c0,1.597,0.757,3.015,1.93,3.924 M38.9,38.866c-1.842,2.128-4.377,3.745-7.4,4.718l0.227,0.752c0.16,0.535,0.651,0.9,1.209,0.9h4.59
	c1.769,0,3.006-1.747,2.416-3.416L38.9,38.866L38.9,38.866z M8.566,38.95l-1.23,3.077c-0.616,1.537,0.517,3.209,2.173,3.209h5.14
	c0.334,0,0.635-0.202,0.76-0.514l0.553-1.384C13.042,42.383,10.468,40.916,8.566,38.95L8.566,38.95z"/>
<g>
	<path id="a" fill="#F15A29" d="M13.938,22.664c0,1.053-0.853,1.906-1.906,1.906c-1.053,0-1.907-0.853-1.907-1.905
		c0-1.053,0.854-1.907,1.907-1.907C13.085,20.758,13.938,21.612,13.938,22.664L13.938,22.664z"/>
</g>
</svg>
